<?xml version="1.0" standalone="no"?>
<!DOCTYPE svg PUBLIC "-//W3C//DTD SVG 20010904//EN"
 "http://www.w3.org/TR/2001/REC-SVG-20010904/DTD/svg10.dtd">
<svg version="1.0" xmlns="http://www.w3.org/2000/svg"
 width="900.000000pt" height="900.000000pt" viewBox="0 0 900.000000 900.000000"
 preserveAspectRatio="xMidYMid meet">
<metadata>
Created by potrace 1.11, written by Peter Selinger 2001-2013
</metadata>
<g transform="translate(0.000000,900.000000) scale(0.100000,-0.100000)"
fill="#000000" stroke="none">
<path d="M4225 8989 c-163 -12 -367 -36 -505 -60 -126 -21 -437 -95 -458 -108
-10 -6 9 -82 88 -347 183 -612 262 -878 278 -934 8 -30 18 -58 21 -62 4 -4 47
3 96 16 217 58 436 86 709 91 115 2 210 6 213 9 4 4 30 310 95 1108 12 153 19
280 16 284 -11 10 -422 13 -553 3z m-467 -417 c3 -107 2 -112 -18 -112 -18 0
-20 6 -20 81 0 68 -2 80 -15 75 -10 -3 -15 1 -15 12 0 27 30 63 48 60 14 -3
17 -20 20 -116z m112 95 c0 -13 -6 -46 -14 -73 -8 -27 -20 -68 -26 -91 -8 -32
-16 -43 -30 -43 -11 0 -20 2 -20 4 0 3 11 45 24 95 13 49 22 92 18 95 -3 3
-16 6 -29 6 -14 0 -23 6 -23 15 0 11 12 15 50 15 46 0 50 -2 50 -23z m118 -4
c3 -19 -28 -63 -43 -63 -8 0 -6 76 2 84 13 13 38 1 41 -21z m46 -4 c10 -51 8
-75 -5 -62 -6 6 -18 9 -26 6 -12 -5 -13 2 -7 33 11 65 27 74 38 23z m102 14
c-3 -8 -6 -28 -6 -44 0 -16 -4 -29 -10 -29 -5 0 -10 17 -10 38 -1 31 -2 34
-11 19 -6 -10 -9 -27 -6 -38 3 -10 1 -22 -4 -25 -5 -3 -9 0 -9 7 0 8 -4 8 -15
-1 -13 -11 -15 -6 -15 38 l0 50 46 0 c36 0 44 -3 40 -15z m35 5 c0 -10 2 -10
6 0 11 27 23 10 23 -33 0 -43 -11 -58 -26 -34 -4 8 -9 7 -15 -2 -6 -9 -9 3 -9
34 0 26 5 47 10 47 6 0 10 -6 11 -12z m69 3 c0 -5 -6 -12 -12 -14 -10 -4 -10
-8 1 -15 9 -7 10 -11 2 -17 -9 -5 -9 -10 0 -21 13 -16 6 -30 -10 -19 -6 3 -11
26 -11 51 0 32 4 44 15 44 8 0 15 -4 15 -9z m56 -2 c4 -8 9 -7 15 2 7 11 12
12 28 2 15 -10 21 -10 24 0 3 7 9 1 15 -13 9 -22 11 -22 11 -5 1 14 8 21 21
21 17 0 20 -7 20 -42 0 -33 -4 -43 -20 -47 -15 -4 -20 0 -21 16 -1 18 -2 19
-6 4 -3 -10 -11 -16 -18 -14 -7 3 -17 1 -23 -5 -8 -8 -15 -8 -25 0 -8 7 -17 9
-21 5 -4 -4 -11 -1 -16 7 -8 13 -10 12 -10 -3 0 -10 -4 -15 -10 -12 -11 7 -14
78 -3 88 10 11 31 8 39 -4z m184 -1 c0 -9 3 -9 12 0 17 17 38 15 38 -4 0 -8
-4 -12 -10 -9 -15 9 -12 -6 5 -25 19 -20 9 -52 -14 -48 -9 2 -17 12 -20 23 -3
17 -1 18 13 6 9 -7 16 -9 16 -3 0 5 -6 15 -14 21 -11 9 -18 6 -34 -14 -11 -14
-23 -25 -26 -25 -3 0 -6 20 -6 45 0 38 3 45 20 45 11 0 20 -5 20 -12z m-455
-128 c3 -5 19 -7 35 -4 28 6 28 6 28 -40 -1 -25 -5 -46 -10 -46 -4 0 -8 6 -9
13 0 9 -2 9 -6 -1 -4 -10 -8 -10 -19 -1 -10 8 -14 8 -14 0 0 -6 -9 -11 -20
-11 -17 0 -20 7 -20 40 0 29 -4 40 -15 40 -18 0 -19 -12 -3 -28 9 -9 9 -12 0
-12 -7 0 -12 -9 -12 -20 0 -11 -4 -20 -10 -20 -5 0 -10 20 -10 44 0 43 1 45
33 49 17 2 35 5 39 5 4 1 10 -2 13 -8z m300 0 c5 -8 11 -7 20 0 19 16 33 5 44
-33 l9 -32 1 33 c1 42 26 43 35 1 11 -55 11 -54 -71 -54 l-78 0 -3 33 c-4 45
25 80 43 52z m199 4 c21 -8 20 -24 -1 -24 -15 0 -14 -2 2 -20 26 -29 13 -48
-34 -48 l-41 -1 0 45 c0 24 5 44 10 44 6 0 10 -15 10 -34 0 -19 5 -38 10 -41
6 -3 10 -1 10 5 0 7 7 10 15 6 13 -5 13 -2 -1 19 -9 14 -14 32 -10 40 6 17 8
17 30 9z m-343 -21 c1 -17 2 -17 6 0 9 33 23 16 23 -28 0 -45 -19 -65 -21 -22
l-2 22 -4 -22 c-7 -38 -23 -26 -23 17 0 22 -4 40 -10 40 -5 0 -10 -18 -10 -41
0 -51 -17 -43 -22 11 -3 39 -3 40 29 40 24 0 33 -5 34 -17z m70 8 c-8 -5 -11
-16 -8 -25 3 -8 2 -18 -4 -22 -6 -3 -3 -11 8 -20 17 -13 17 -13 -4 -14 -21 0
-23 5 -23 45 0 40 2 45 23 45 16 0 19 -3 8 -9z m-17 -221 c18 -10 38 -31 46
-44 7 -14 26 -28 41 -31 96 -21 141 -145 84 -229 -16 -23 -25 -51 -25 -74 0
-46 -30 -96 -72 -123 -26 -16 -44 -19 -83 -14 -64 7 -80 7 -140 -1 -89 -11
-155 48 -155 138 0 32 -6 50 -20 63 -30 27 -43 87 -30 134 12 45 64 96 108
106 17 3 34 16 40 31 28 60 141 85 206 44z"/>
<path d="M3961 8654 c0 -11 3 -14 6 -6 3 7 2 16 -1 19 -3 4 -6 -2 -5 -13z"/>
<path d="M4336 8649 c20 -23 24 -23 24 -5 0 7 -9 16 -21 19 -20 5 -20 5 -3
-14z"/>
<path d="M4295 8640 c-9 -15 -1 -23 21 -18 15 3 16 4 1 16 -11 9 -17 10 -22 2z"/>
<path d="M4411 8624 c0 -11 3 -14 6 -6 3 7 2 16 -1 19 -3 4 -6 -2 -5 -13z"/>
<path d="M4000 8505 c0 -14 5 -25 10 -25 6 0 10 11 10 25 0 14 -4 25 -10 25
-5 0 -10 -11 -10 -25z"/>
<path d="M4300 8519 c0 -5 9 -9 20 -9 11 0 20 2 20 4 0 2 -9 6 -20 9 -11 3
-20 1 -20 -4z"/>
<path d="M4350 8511 c0 -11 5 -23 10 -26 6 -4 10 5 10 19 0 14 -4 26 -10 26
-5 0 -10 -9 -10 -19z"/>
<path d="M4078 8281 l-32 -28 38 -18 c21 -10 44 -28 53 -41 l15 -23 34 34 c19
19 41 35 49 35 24 0 17 27 -11 49 -41 32 -105 29 -146 -8z"/>
<path d="M3941 8179 c-25 -24 -31 -39 -31 -73 0 -23 7 -52 16 -64 l16 -23 24
26 c13 14 37 31 53 36 l30 11 -20 31 c-10 18 -19 44 -19 60 0 37 -30 36 -69
-4z"/>
<path d="M4040 8184 c0 -16 13 -39 34 -60 33 -33 66 -45 66 -24 0 24 -30 79
-51 94 -33 23 -49 20 -49 -10z"/>
<path d="M4222 8194 c-24 -17 -52 -64 -52 -89 0 -45 86 20 96 73 7 37 -7 42
-44 16z"/>
<path d="M4300 8183 c0 -16 -9 -42 -20 -60 l-19 -32 22 -7 c12 -3 36 -20 53
-36 l32 -30 16 23 c27 39 21 93 -15 134 -38 43 -69 47 -69 8z"/>
<path d="M4013 8040 c-48 -29 -43 -50 10 -50 51 0 113 42 87 60 -24 15 -62 12
-97 -10z"/>
<path d="M4194 8048 c-4 -6 4 -21 20 -35 33 -28 116 -34 116 -8 0 36 -117 74
-136 43z"/>
<path d="M4132 7995 c-17 -36 -15 -76 4 -103 12 -18 19 -20 30 -11 21 17 28
73 12 105 -18 37 -32 40 -46 9z"/>
<path d="M4055 7958 c-16 -4 -45 -5 -62 -2 -29 5 -33 4 -33 -15 0 -58 57 -111
119 -111 37 0 46 13 30 42 -7 13 -15 39 -18 59 -6 34 -7 35 -36 27z"/>
<path d="M4220 7944 c0 -14 -7 -41 -15 -60 -18 -44 -13 -54 26 -54 62 0 119
53 119 111 0 19 -4 20 -33 15 -17 -3 -47 -2 -65 3 -30 9 -32 8 -32 -15z"/>
<path d="M4904 8966 c-2 -6 -24 -261 -49 -566 -25 -305 -50 -613 -56 -684 -6
-70 -7 -132 -2 -136 4 -4 55 -13 113 -19 223 -26 474 -91 708 -183 83 -33 157
-58 162 -56 9 3 161 310 320 643 21 44 95 197 164 339 70 143 125 265 122 271
-2 6 -64 37 -138 68 -366 153 -740 257 -1113 306 -206 27 -227 29 -231 17z
m216 -481 c0 -108 -1 -115 -20 -115 -18 0 -20 7 -20 81 0 68 -2 80 -15 75 -10
-4 -15 1 -15 16 0 27 27 58 52 58 16 0 18 -10 18 -115z m170 101 c0 -6 4 -5 9
2 5 8 17 12 27 10 26 -4 33 -85 9 -94 -8 -4 -22 -1 -29 5 -11 9 -15 9 -20 -1
-5 -10 -7 -10 -12 -1 -3 7 -12 9 -20 6 -11 -4 -14 5 -14 40 0 41 2 45 25 45
14 0 25 -6 25 -12z m-5 -126 c4 -7 11 -7 18 -2 16 13 57 8 66 -7 7 -10 9 -10
14 2 4 11 28 14 112 14 l107 -1 -6 -29 c-3 -16 -6 -38 -6 -48 0 -32 -17 -21
-24 16 -10 50 -26 54 -26 5 0 -54 -23 -49 -31 6 -5 28 -7 32 -9 14 -1 -14 -2
-32 -1 -41 1 -12 -9 -16 -49 -18 -48 -1 -50 0 -51 26 l-2 28 -4 -27 c-5 -34
-33 -38 -34 -5 l0 22 -9 -22 c-11 -28 -46 -30 -55 -4 -7 22 -35 18 -35 -5 0
-8 -4 -14 -10 -14 -11 0 -14 83 -3 93 10 10 31 8 38 -3z m-127 -302 c2 -18 -1
-28 -10 -28 -7 0 3 -8 22 -18 33 -16 35 -21 38 -69 2 -29 7 -53 13 -53 5 0 9
6 9 14 0 17 30 30 43 17 16 -16 3 -46 -20 -45 -12 0 -20 -3 -17 -8 18 -28 66
10 84 68 18 56 27 64 75 64 48 0 57 -8 75 -65 l13 -40 17 50 17 50 54 0 54 0
18 -55 c15 -49 16 -56 2 -66 -8 -6 -13 -18 -10 -27 5 -13 10 -12 29 7 16 15
19 25 12 34 -6 9 -4 18 8 30 16 16 18 16 31 -2 11 -14 12 -23 4 -33 -8 -9 -8
-13 0 -13 11 0 41 -51 41 -71 0 -6 -6 -9 -14 -6 -11 4 -16 -4 -18 -30 -3 -31
-7 -36 -30 -39 -27 -3 -28 -1 -29 44 0 26 -3 41 -6 35 -7 -18 -23 -16 -23 2 0
8 -7 15 -14 15 -11 0 -16 -14 -18 -47 -3 -48 -3 -48 -38 -48 -35 0 -35 0 -38
48 -2 34 -7 47 -19 47 -11 0 -14 6 -9 24 4 16 1 26 -9 30 -26 10 -42 -3 -37
-30 3 -17 0 -24 -11 -24 -12 0 -17 -12 -19 -47 -3 -46 -4 -48 -35 -49 -33 -2
-33 -2 -33 47 0 38 -3 49 -16 49 -12 0 -15 7 -12 25 4 17 1 25 -8 25 -19 0
-37 -38 -30 -64 3 -12 2 -35 -2 -51 -6 -23 -15 -30 -35 -32 -23 -1 -27 2 -29
25 -7 105 -6 98 -24 116 -28 28 -34 17 -34 -63 l0 -78 -40 0 -40 0 0 78 c0 92
-16 105 -25 22 -10 -88 -27 -113 -19 -28 4 39 6 94 5 123 -2 62 18 102 52 103
12 0 16 3 10 6 -14 5 -18 45 -6 57 17 17 48 0 51 -26z m683 16 c9 -12 10 -20
2 -33 -9 -15 -6 -19 19 -29 28 -10 29 -12 26 -74 -2 -36 -7 -62 -13 -60 -6 1
-12 -31 -15 -75 l-5 -78 -40 0 -40 0 -5 78 c-3 44 -9 76 -15 75 -12 -3 -19 74
-11 109 4 13 16 25 31 29 20 5 22 9 13 24 -13 20 3 50 27 50 7 0 18 -7 26 -16z
m-422 -18 c15 -18 4 -46 -19 -46 -23 0 -42 24 -34 44 8 20 37 21 53 2z m176
-16 c0 -18 -6 -26 -23 -28 -24 -4 -38 18 -28 44 3 9 15 14 28 12 17 -2 23 -10
23 -28z"/>
<path d="M5322 8555 c0 -16 2 -22 5 -12 2 9 2 23 0 30 -3 6 -5 -1 -5 -18z"/>
<path d="M5433 8420 c0 -16 4 -30 9 -30 4 0 8 14 8 30 0 17 -4 30 -8 30 -5 0
-9 -13 -9 -30z"/>
<path d="M5322 8415 c0 -16 2 -22 5 -12 2 9 2 23 0 30 -3 6 -5 -1 -5 -18z"/>
<path d="M2950 8721 c-364 -138 -669 -295 -975 -502 -71 -49 -145 -101 -164
-117 l-34 -29 29 -41 c16 -22 209 -273 428 -556 l400 -514 55 40 c219 159 488
302 748 399 51 19 93 39 93 44 0 10 -41 150 -150 515 -82 274 -146 491 -197
663 -35 118 -50 157 -62 157 -9 -1 -86 -27 -171 -59z m-642 -563 c-3 -105 -4
-113 -23 -113 -18 0 -20 8 -23 78 -2 46 -7 75 -12 72 -14 -9 -12 32 2 55 7 11
23 20 36 20 22 0 23 -1 20 -112z m122 93 c16 -31 12 -51 -11 -51 -12 0 -23 8
-26 20 -6 24 -23 16 -23 -11 0 -13 7 -19 23 -19 35 0 47 -19 47 -75 0 -59 -12
-75 -56 -75 -47 0 -64 29 -64 112 0 98 10 118 59 118 30 0 43 -5 51 -19z m134
-27 c-2 -19 1 -34 6 -34 6 0 10 10 10 23 0 12 4 29 10 37 8 12 10 12 16 -4 5
-14 9 -15 15 -5 9 15 66 21 75 8 3 -5 1 -9 -4 -9 -5 0 -9 -11 -9 -25 0 -18 5
-25 19 -25 10 0 16 -5 13 -10 -6 -10 -96 -7 -114 4 -5 4 -12 2 -16 -4 -12 -19
-43 -11 -47 12 -3 21 -4 21 -20 4 -17 -17 -18 -16 -18 22 0 39 1 40 34 40 34
0 35 -1 30 -34z m227 4 l2 -33 6 31 6 30 93 0 c50 1 92 -3 92 -8 0 -4 -3 -8
-7 -8 -5 0 -9 -11 -9 -25 -1 -14 2 -25 8 -25 5 0 7 -4 4 -9 -5 -8 -18 -8 -83
-2 -7 1 -14 16 -15 34 l-1 32 -4 -33 c-3 -24 -8 -32 -19 -28 -8 3 -14 2 -14
-3 0 -5 -26 -8 -57 -7 -46 1 -59 5 -61 19 -2 9 1 17 7 17 6 0 11 9 11 19 0 17
11 28 33 30 4 1 8 -14 8 -31z m269 13 c0 9 11 14 35 14 39 0 55 -17 49 -48 -6
-33 -21 -42 -48 -29 -18 8 -27 8 -32 1 -4 -8 -9 -8 -17 0 -7 7 -15 7 -25 -2
-13 -10 -14 -7 -8 28 10 54 17 61 33 40 9 -14 13 -15 13 -4z m-313 -153 l3
-37 -124 1 c-93 1 -127 5 -130 15 -3 7 -2 13 3 13 4 0 6 11 3 25 l-4 25 123
-2 124 -3 2 -37z m235 10 l1 -33 4 32 4 33 100 -2 c91 -1 123 -8 101 -22 -5
-3 -7 -16 -5 -30 5 -24 4 -24 -66 -25 l-71 0 -2 32 -1 32 -4 -32 c-2 -18 -8
-33 -14 -33 -5 0 -10 15 -10 33 l-1 32 -7 -30 c-3 -17 -14 -31 -24 -33 -13 -3
-17 4 -19 30 l-1 33 -4 -32 c-2 -18 -8 -33 -14 -33 -5 0 -10 15 -11 33 l-1 32
-4 -32 c-2 -18 -8 -33 -14 -33 -5 0 -10 15 -11 33 l-1 32 -4 -32 c-5 -42 -23
-43 -23 -2 0 16 -4 28 -9 25 -4 -3 -6 -17 -4 -31 5 -24 4 -25 -46 -24 l-51 2
0 37 0 38 105 1 105 1 2 -32z m48 -117 c0 -23 -14 -41 -31 -41 -22 0 -27 35
-6 43 20 9 37 8 37 -2z m-73 -18 c9 -24 26 -40 47 -44 30 -7 12 -24 -23 -23
l-35 2 27 -15 c15 -8 25 -18 22 -23 -8 -14 -42 -12 -51 1 -4 8 -9 7 -15 -2 -4
-8 -3 -19 3 -26 7 -9 7 -13 -2 -13 -8 0 -10 -8 -6 -25 4 -14 2 -25 -4 -25 -5
0 -10 9 -10 20 0 25 -36 27 -49 3 -5 -10 -12 -46 -16 -80 -9 -84 -36 -122
-103 -148 -45 -17 -52 -24 -52 -47 0 -27 2 -28 49 -28 76 0 109 9 115 33 3 12
1 26 -4 32 -16 19 0 25 70 25 68 0 84 -5 73 -23 -8 -13 -8 -155 0 -164 16 -15
-9 -23 -72 -23 -71 0 -87 6 -71 25 5 6 7 20 4 32 -8 29 -46 33 -259 24 -143
-6 -183 -4 -195 6 -11 10 -12 18 -4 30 9 14 26 16 117 14 l107 -3 0 25 c0 20
-6 26 -32 31 -18 4 -55 20 -83 36 -46 27 -48 30 -22 30 32 0 62 14 94 43 l22
20 -32 21 c-25 17 -37 37 -57 98 -14 43 -31 83 -38 90 -18 18 -15 28 11 28 47
0 95 -21 146 -65 80 -68 93 -69 190 -1 35 24 45 27 65 18 30 -14 41 -4 20 19
-17 18 -16 49 1 51 6 0 15 -9 21 -21 6 -11 14 -18 17 -14 4 3 0 14 -9 24 -17
19 -13 49 6 49 6 0 14 -8 17 -17z"/>
<path d="M2370 8115 c0 -34 12 -46 25 -24 9 14 -3 59 -15 59 -6 0 -10 -16 -10
-35z"/>
<path d="M2640 8220 c0 -5 5 -10 11 -10 5 0 7 5 4 10 -3 6 -8 10 -11 10 -2 0
-4 -4 -4 -10z"/>
<path d="M2846 8232 c-2 -4 -1 -14 5 -22 7 -12 9 -10 9 8 0 23 -5 28 -14 14z"/>
<path d="M2930 8214 c0 -8 5 -12 10 -9 6 3 10 10 10 16 0 5 -4 9 -10 9 -5 0
-10 -7 -10 -16z"/>
<path d="M2530 8097 c0 -9 4 -18 9 -21 5 -4 8 1 7 9 -3 21 -16 31 -16 12z"/>
<path d="M2632 8090 c0 -14 2 -19 5 -12 2 6 2 18 0 25 -3 6 -5 1 -5 -13z"/>
<path d="M3082 8090 c0 -14 2 -19 5 -12 2 6 2 18 0 25 -3 6 -5 1 -5 -13z"/>
<path d="M2652 7520 c0 -14 2 -19 5 -12 2 6 2 18 0 25 -3 6 -5 1 -5 -13z"/>
<path d="M7707 7443 c-50 -49 -105 -101 -123 -118 -57 -55 -319 -302 -345
-326 -15 -13 -97 -91 -184 -174 -86 -82 -181 -172 -210 -199 l-54 -49 58 -66
c166 -189 348 -470 450 -694 25 -53 48 -97 52 -97 7 0 271 106 619 248 80 33
228 93 330 135 301 122 332 135 336 140 6 5 -95 225 -153 335 -103 196 -241
415 -372 592 -116 157 -287 360 -303 360 -5 0 -51 -39 -101 -87z m-284 -556
c16 -11 18 -25 17 -97 -1 -8 2 -27 6 -42 15 -63 -20 -105 -77 -93 -33 7 -48
34 -41 72 7 35 49 32 55 -4 4 -26 4 -26 6 5 1 22 -3 32 -14 32 -8 0 -15 9 -15
20 0 11 6 20 14 20 8 0 16 6 19 13 6 17 -3 38 -14 32 -4 -3 -6 -12 -2 -20 4
-11 -3 -15 -25 -15 -23 0 -29 4 -27 18 2 9 4 22 4 29 3 36 61 55 94 30z m162
3 c5 -8 11 -7 20 0 10 8 19 8 33 1 11 -6 22 -7 26 -3 12 11 79 12 93 0 17 -13
17 -72 1 -85 -19 -15 -205 -16 -214 -1 -11 18 -5 81 9 90 16 11 25 10 32 -2z
m301 -1 c3 -6 3 -14 -2 -18 -12 -8 -15 -63 -3 -56 5 4 9 16 9 28 0 44 14 51
104 54 l86 2 0 -53 c0 -50 -1 -53 -25 -53 -16 0 -25 5 -25 16 -1 14 -2 14 -11
-1 -12 -22 -99 -26 -99 -5 0 9 -2 9 -8 -1 -5 -8 -30 -12 -70 -11 l-62 2 0 47
c0 26 2 49 5 52 10 10 94 8 101 -3z m-295 -156 l2 -28 4 28 c4 25 8 27 53 27
34 0 52 -5 58 -16 12 -22 2 -73 -17 -83 -22 -11 -151 -8 -152 4 0 6 2 29 6 53
5 33 10 42 26 42 14 0 19 -7 20 -27z m279 -14 c0 -24 4 -38 10 -34 6 3 10 22
10 41 0 24 5 34 15 34 8 0 15 -9 15 -20 0 -11 7 -20 15 -20 10 0 15 7 13 18
-3 15 8 17 117 17 l120 0 0 -49 0 -50 -115 0 c-112 -1 -115 0 -118 22 -2 12
-10 22 -18 22 -17 0 -19 -17 -2 -22 6 -2 8 -9 5 -15 -7 -11 -191 -13 -200 -3
-2 3 -7 26 -10 53 l-7 47 75 0 75 0 0 -41z m162 -236 c34 -72 39 -108 14 -100
-6 2 -23 26 -38 53 -18 32 -29 44 -32 34 -3 -8 -33 -107 -67 -220 -33 -113
-67 -211 -74 -219 -19 -19 -29 5 -45 104 -17 110 -22 117 -51 64 -36 -65 -52
-58 -66 30 -7 41 -14 75 -16 77 -2 3 -12 -14 -22 -36 l-18 -41 -106 3 c-86 2
-106 6 -106 18 0 12 19 16 95 18 l95 3 28 69 c21 51 34 70 47 70 17 0 25 -28
43 -159 1 -8 13 6 26 32 25 49 55 62 65 30 2 -10 10 -54 17 -98 l13 -80 22 80
c29 103 101 331 109 344 12 21 33 -2 67 -76z m20 -146 c10 -11 17 -11 36 -1
40 21 82 -6 82 -53 0 -26 -84 -123 -105 -123 -14 0 -94 84 -96 100 -1 5 -2 16
-3 23 -4 21 14 48 37 57 30 12 34 12 49 -3z"/>
<path d="M7972 6845 c-1 -19 3 -35 8 -35 10 0 10 59 0 65 -4 2 -7 -11 -8 -30z"/>
<path d="M7830 6690 c0 -5 5 -10 10 -10 6 0 10 5 10 10 0 6 -4 10 -10 10 -5 0
-10 -4 -10 -10z"/>
<path d="M8035 6690 c-3 -5 -1 -10 4 -10 6 0 11 5 11 10 0 6 -2 10 -4 10 -3 0
-8 -4 -11 -10z"/>
<path d="M593 6718 c-6 -7 -42 -74 -81 -148 -176 -337 -332 -770 -406 -1132
-31 -149 -30 -138 -8 -138 16 0 518 -86 1078 -186 138 -24 257 -44 266 -44 12
0 24 37 52 151 61 248 130 437 242 660 36 72 62 135 57 139 -12 11 -1159 699
-1175 705 -8 3 -19 0 -25 -7z m47 -577 l5 -74 30 74 c23 57 35 74 50 74 18 0
20 -8 23 -70 1 -38 8 -81 15 -94 9 -19 9 -25 0 -28 -7 -3 -13 -13 -13 -24 0
-26 -36 -25 -43 1 -4 14 -14 20 -35 20 -21 0 -31 -6 -35 -20 -3 -12 -14 -20
-26 -20 -20 0 -21 5 -21 80 0 66 -2 78 -15 74 -24 -9 -19 36 7 63 38 41 52 27
58 -56z m220 39 c0 -22 5 -40 10 -40 6 0 10 18 10 40 l0 40 55 0 c52 0 69 -10
44 -26 -8 -4 -8 -9 0 -17 7 -7 7 -14 0 -24 -8 -9 -8 -13 0 -13 6 0 11 -4 11
-10 0 -19 -50 -11 -51 8 -1 16 -2 16 -6 -1 -4 -15 -13 -17 -51 -15 l-47 3 -1
40 c-1 44 2 55 17 55 5 0 9 -18 9 -40z m270 0 c0 -51 18 -53 22 -2 l3 37 63 1
c68 1 69 0 56 -65 -6 -26 -11 -31 -35 -31 -16 0 -29 5 -29 12 0 8 -4 7 -12 -3
-10 -11 -33 -13 -100 -11 l-88 3 0 49 0 48 60 1 60 1 0 -40z m-220 -112 c0
-10 2 -10 9 0 5 9 31 12 92 10 l84 -3 1 -47 2 -48 -49 0 -49 0 -2 43 -1 42 -4
-42 -4 -43 -72 3 -72 2 -6 43 c-3 23 -3 44 -1 47 11 11 72 4 72 -7z m348 -231
c13 -3 36 -1 53 3 40 12 53 -15 20 -42 -28 -22 -62 -23 -100 -3 -26 13 -33 13
-61 -1 -26 -14 -38 -14 -73 -4 -23 6 -49 12 -57 12 -8 0 -34 -6 -57 -12 -35
-10 -47 -10 -73 4 -28 14 -35 14 -61 1 -38 -20 -72 -19 -100 3 -33 28 -20 54
21 42 32 -9 47 -7 87 13 17 7 30 7 48 -1 33 -15 90 -15 114 0 15 9 26 8 53 -5
35 -17 71 -13 115 11 13 8 22 7 33 -2 8 -7 25 -16 38 -19z m-328 -87 c29 -10
43 -9 72 3 33 14 41 14 81 -1 43 -15 48 -15 82 1 33 16 38 16 67 1 22 -11 43
-14 74 -9 35 5 44 3 44 -9 0 -41 -83 -63 -125 -32 -17 12 -23 12 -47 0 -35
-18 -76 -18 -110 0 -24 13 -32 13 -55 0 -35 -18 -76 -18 -111 0 -24 12 -30 12
-47 0 -42 -31 -125 -9 -125 32 0 12 9 14 44 9 31 -5 52 -2 72 9 16 8 34 13 39
11 6 -2 26 -9 45 -15z m-102 -157 c18 -13 38 -33 44 -42 10 -17 15 -15 62 16
97 64 196 78 279 38 45 -21 137 -102 137 -120 0 -21 -87 -95 -143 -121 -87
-40 -162 -29 -269 38 l-53 34 -30 -34 c-31 -37 -88 -67 -110 -58 -10 3 -8 15
8 48 28 56 28 130 1 186 -12 23 -19 44 -15 47 10 10 55 -6 89 -32z"/>
<path d="M697 6093 c-10 -9 -9 -33 1 -33 4 0 8 9 8 20 0 23 0 22 -9 13z"/>
<path d="M1171 6164 c0 -11 3 -14 6 -6 3 7 2 16 -1 19 -3 4 -6 -2 -5 -13z"/>
<path d="M1030 6051 c0 -6 5 -13 10 -16 6 -3 10 1 10 9 0 9 -4 16 -10 16 -5 0
-10 -4 -10 -9z"/>
<path d="M1030 6010 c0 -5 5 -10 10 -10 6 0 10 5 10 10 0 6 -4 10 -10 10 -5 0
-10 -4 -10 -10z"/>
<path d="M1160 5526 c-18 -22 -5 -48 22 -44 17 2 23 10 23 28 0 29 -26 38 -45
16z"/>
<path d="M8380 6003 c-400 -163 -641 -261 -825 -335 -82 -33 -153 -64 -158
-67 -4 -4 5 -41 19 -82 91 -260 142 -517 169 -851 l7 -78 41 0 c183 -1 1353
24 1359 29 3 3 0 88 -7 189 -25 323 -58 530 -135 828 -46 176 -141 470 -158
485 -4 4 -144 -49 -312 -118z m-286 -309 c13 -5 16 -22 16 -85 0 -71 -2 -79
-19 -79 -11 0 -29 12 -41 28 -18 22 -21 35 -16 76 7 58 23 74 60 60z m56 -54
c0 -75 18 -79 22 -5 4 79 23 69 23 -12 l0 -68 -31 -3 c-31 -3 -32 -2 -35 45
-5 62 0 103 12 103 5 0 9 -27 9 -60z m115 38 c14 -64 25 -114 25 -120 0 -13
-28 -9 -33 5 -4 10 -7 10 -18 0 -25 -24 -31 -13 -24 40 9 63 21 97 35 97 5 0
12 -10 15 -22z m63 -46 c2 -45 7 -62 17 -62 10 0 15 17 17 63 4 85 22 78 26
-10 l3 -73 -46 0 -45 0 0 76 c0 56 3 75 13 72 7 -3 13 -28 15 -66z m176 43
c12 -17 13 -17 19 6 5 18 9 21 18 12 9 -9 9 -20 0 -44 -6 -17 -11 -47 -11 -65
0 -24 -5 -34 -15 -34 -9 0 -15 9 -15 23 0 12 -6 40 -13 63 -18 60 -37 46 -37
-27 0 -46 -3 -59 -15 -59 -12 0 -15 13 -15 59 0 37 -5 61 -12 63 -6 2 -8 10
-4 17 11 18 83 8 100 -14z m-544 -124 c0 -52 4 -81 12 -83 8 -3 8 -12 -3 -36
-16 -36 -38 -42 -46 -12 -4 14 -14 20 -34 20 -37 0 -37 9 3 109 23 61 36 81
50 81 16 0 18 -9 18 -79z m678 -126 c6 -74 -17 -107 -59 -85 -27 15 -28 124
-1 139 28 16 56 -10 60 -54z m-538 46 c0 -5 -9 -11 -20 -14 -23 -6 -27 -37 -5
-37 20 0 19 -10 -2 -25 -18 -13 -10 -35 13 -35 8 0 14 -4 14 -10 0 -12 -45
-24 -59 -15 -12 7 -15 127 -4 138 10 10 63 8 63 -2z m78 -62 c3 -64 2 -67 -23
-73 -14 -4 -30 -4 -35 -1 -6 4 -10 38 -10 76 l0 70 33 -3 32 -3 3 -66z m54 9
l1 -63 6 59 c9 85 31 87 31 3 0 -74 -14 -96 -49 -77 -18 9 -21 20 -21 75 0 51
3 65 15 65 12 0 15 -14 17 -62z m126 35 c2 -16 -2 -23 -12 -23 -9 0 -16 5 -16
10 0 6 -4 10 -10 10 -12 0 -13 -77 -1 -84 5 -3 11 3 14 14 7 27 27 25 28 -2 1
-13 5 -6 10 17 5 22 11 50 14 63 3 12 12 22 20 22 8 0 17 -10 20 -22 20 -91
23 -114 15 -122 -6 -6 -12 -3 -16 7 -8 22 -30 22 -38 1 -5 -12 -10 -13 -19 -6
-8 7 -18 7 -27 2 -21 -13 -26 -12 -44 6 -16 16 -22 87 -10 119 10 26 68 16 72
-12z m152 17 c0 -5 -4 -10 -10 -10 -5 0 -10 -28 -12 -62 -2 -35 -7 -63 -13
-63 -5 0 -11 28 -13 63 -2 34 -7 62 -12 62 -6 0 -10 5 -10 10 0 6 16 10 35 10
19 0 35 -4 35 -10z m38 -62 c-2 -40 -7 -73 -13 -73 -5 0 -11 33 -13 73 -2 60
0 72 13 72 13 0 15 -12 13 -72z m140 50 l11 -23 0 23 c1 12 6 22 11 22 7 0 10
-27 8 -72 -3 -80 -14 -92 -34 -38 l-12 35 -1 -32 c-1 -18 -5 -33 -11 -33 -6 0
-10 30 -10 70 0 52 3 70 13 70 8 0 19 -10 25 -22z m-60 -216 c3 -18 -1 -22
-22 -22 -19 0 -26 5 -26 18 0 39 43 43 48 4z m-108 -216 l0 -192 -119 -37
c-66 -20 -130 -37 -142 -37 -12 0 -76 14 -141 31 l-118 32 2 200 c2 149 6 201
16 205 9 3 12 -40 12 -191 0 -178 2 -196 18 -201 9 -3 61 -17 115 -31 l98 -26
115 36 114 36 0 196 c0 173 2 194 15 183 12 -10 15 -46 15 -204z m-365 151
l90 -53 3 -162 c1 -89 0 -162 -4 -162 -3 0 -50 14 -105 31 l-99 31 0 184 c0
141 3 184 13 184 6 0 53 -24 102 -53z m313 -134 l-3 -186 -90 -28 c-49 -16
-93 -29 -97 -29 -5 0 -8 73 -8 163 l0 162 93 52 c50 29 95 52 100 53 4 0 6
-84 5 -187z m162 -17 c0 -107 -5 -186 -12 -207 l-11 -33 -13 34 c-8 23 -13 96
-13 207 -1 156 1 172 17 176 9 2 20 2 25 0 4 -2 7 -82 7 -177z"/>
<path d="M8066 5663 c-8 -8 -8 -57 0 -78 10 -24 24 1 24 42 0 31 -11 49 -24
36z"/>
<path d="M7908 5500 c-7 -24 -3 -38 8 -28 3 4 4 17 2 30 l-3 23 -7 -25z"/>
<path d="M8590 5410 c0 -22 5 -40 10 -40 6 0 10 18 10 40 0 22 -4 40 -10 40
-5 0 -10 -18 -10 -40z"/>
<path d="M8140 5410 c0 -32 4 -49 10 -45 6 3 10 24 10 45 0 21 -4 42 -10 45
-6 4 -10 -13 -10 -45z"/>
<path d="M8401 5394 c0 -11 3 -14 6 -6 3 7 2 16 -1 19 -3 4 -6 -2 -5 -13z"/>
<path d="M56 5164 c-12 -41 -37 -301 -46 -480 -14 -284 6 -606 56 -921 10 -57
21 -103 25 -103 4 0 86 16 181 36 95 19 238 48 318 63 220 43 865 173 867 175
2 1 -4 43 -11 92 -38 238 -46 545 -20 788 7 72 13 130 11 131 -1 1 -101 19
-222 39 -121 20 -281 48 -355 61 -106 18 -472 82 -766 132 -25 4 -33 1 -38
-13z m264 -474 c0 -113 -1 -120 -20 -120 -18 0 -20 7 -20 80 0 66 -2 78 -15
74 -24 -9 -19 36 7 63 42 45 48 33 48 -97z m113 105 c11 -11 15 -40 16 -110 0
-83 -2 -96 -19 -105 -50 -27 -90 -3 -90 54 0 19 5 26 20 26 15 0 20 -7 20 -26
0 -34 24 -26 28 10 3 21 -1 29 -17 33 -27 7 -27 29 -1 36 12 3 20 14 20 25 0
29 -20 38 -27 13 -8 -31 -43 -28 -43 3 0 48 60 75 93 41z m177 -27 c0 -52 18
-57 22 -7 3 36 6 43 26 44 13 1 27 -5 32 -14 8 -14 9 -14 10 2 0 11 6 17 13
14 6 -2 12 -16 12 -30 -1 -28 11 -24 17 6 6 33 23 22 35 -23 l13 -45 -4 47 -3
46 43 0 c42 0 59 -11 32 -21 -10 -3 -10 -7 0 -19 9 -12 10 -18 2 -23 -8 -5 -8
-11 -1 -19 12 -14 5 -26 -16 -26 -9 0 -13 14 -13 46 0 27 -4 43 -10 39 -5 -3
-10 -23 -10 -44 0 -37 -15 -47 -45 -29 -6 3 -19 2 -30 -2 -11 -4 -34 -4 -52 1
-18 4 -33 4 -33 0 0 -9 -46 -8 -56 1 -4 4 -13 3 -21 -3 -20 -17 -43 7 -43 45
0 40 13 53 51 52 27 -1 29 -4 29 -38z m100 -110 c0 -5 6 -3 14 5 16 16 66 11
78 -7 5 -8 8 -7 8 2 0 6 5 12 11 12 6 0 9 -19 7 -47 l-3 -46 -45 -2 c-25 -2
-51 2 -57 7 -9 7 -13 7 -13 -1 0 -7 -4 -9 -10 -6 -5 3 -11 23 -11 43 l-2 37
-6 -38 c-3 -21 -10 -38 -16 -38 -5 0 -13 17 -16 38 -3 21 -7 32 -8 24 -1 -11
-4 -11 -16 -1 -13 11 -15 8 -15 -15 0 -24 2 -26 16 -14 14 11 15 10 12 -11 -2
-20 -9 -25 -33 -26 -16 -1 -34 4 -38 10 -6 8 -10 8 -14 -1 -2 -7 -9 -13 -15
-13 -9 0 -6 33 8 83 8 28 34 20 35 -10 2 -28 2 -28 6 -3 3 14 9 27 13 30 14 9
110 -1 110 -12z m180 -275 c30 -8 77 -26 104 -40 58 -29 166 -129 166 -152 0
-21 -91 -110 -145 -143 -100 -61 -222 -86 -337 -69 -102 16 -227 78 -295 148
-29 30 -53 57 -53 62 0 4 25 33 57 65 131 132 318 180 503 129z"/>
<path d="M560 4754 c0 -23 2 -24 15 -10 8 8 15 17 15 19 0 3 -7 7 -15 11 -11
4 -15 -2 -15 -20z"/>
<path d="M742 4625 c0 -16 2 -22 5 -12 2 9 2 23 0 30 -3 6 -5 -1 -5 -18z"/>
<path d="M708 4353 c-15 -4 -15 -6 3 -24 25 -25 15 -42 -19 -35 -15 3 -34 2
-42 -4 -12 -8 -11 -10 8 -10 13 0 20 -4 17 -10 -3 -5 -17 -10 -31 -10 -32 0
-31 -16 2 -24 29 -8 27 -33 -2 -27 -42 9 -58 5 -62 -12 -7 -34 7 -65 30 -69
14 -2 29 -16 38 -35 18 -38 31 -33 52 22 14 36 14 42 0 63 -15 23 -15 23 14
16 26 -7 28 -6 15 10 -20 24 -6 31 16 9 28 -28 55 -36 65 -21 6 10 13 7 28
-12 15 -20 20 -21 20 -8 0 9 7 21 16 26 9 5 17 13 17 18 1 5 5 8 10 7 16 -6 5
32 -19 65 -41 53 -116 81 -176 65z"/>
<path d="M911 4184 c0 -11 3 -14 6 -6 3 7 2 16 -1 19 -3 4 -6 -2 -5 -13z"/>
<path d="M870 4127 c-24 -8 -35 -18 -35 -32 0 -32 36 -24 58 13 10 17 17 32
15 31 -1 0 -19 -5 -38 -12z"/>
<path d="M717 4043 c-16 -15 -5 -23 33 -23 43 0 54 14 18 24 -30 8 -43 7 -51
-1z"/>
<path d="M810 4040 c-8 -5 -10 -10 -5 -10 6 0 17 5 25 10 8 5 11 10 5 10 -5 0
-17 -5 -25 -10z"/>
<path d="M8140 4479 c-179 -3 -376 -7 -437 -8 l-113 -1 0 -57 c0 -84 -17 -272
-36 -393 -18 -119 -81 -379 -118 -486 l-24 -72 41 -16 c72 -26 392 -145 627
-231 124 -46 319 -117 434 -160 114 -42 212 -73 216 -68 20 22 126 388 165
568 49 227 85 529 99 833 l5 102 -267 -2 c-147 -1 -413 -5 -592 -9z m-46 -165
c9 -3 16 -17 16 -30 0 -26 -10 -30 -28 -12 -9 9 -12 8 -12 -5 0 -10 8 -17 20
-17 11 0 21 -6 22 -12 0 -7 4 7 7 32 6 42 8 45 35 45 16 0 31 -6 34 -12 2 -7
-3 -13 -12 -13 -24 0 -31 -22 -11 -36 17 -13 17 -15 2 -32 -22 -24 -21 -32 3
-32 11 0 20 -7 20 -15 0 -10 -11 -15 -35 -15 -32 0 -35 2 -37 33 l-1 32 -4
-32 c-4 -28 -8 -33 -32 -33 -39 0 -51 17 -51 76 0 67 22 94 64 78z m137 -16
l12 -22 10 24 c5 14 11 20 14 13 3 -9 12 -9 29 -2 28 10 64 -3 65 -24 0 -7 4
-2 10 11 7 18 15 23 36 20 28 -3 45 -28 19 -28 -19 0 -22 -36 -3 -43 10 -4 10
-7 0 -18 -18 -18 -16 -39 2 -39 8 0 15 -7 15 -15 0 -10 -10 -15 -31 -15 -23 0
-32 5 -37 22 l-5 22 -8 -22 c-7 -19 -15 -22 -60 -20 -42 2 -53 6 -57 22 -5 19
-6 18 -13 -2 -17 -45 -29 -21 -29 58 0 81 9 99 31 58z m276 14 c13 -8 16 -152
4 -152 -4 0 -12 5 -19 12 -9 9 -12 9 -12 0 0 -7 -7 -12 -15 -12 -12 0 -15 16
-15 80 0 76 1 80 23 80 12 0 27 -4 34 -8z m-557 -89 c0 -19 -6 -23 -30 -23
-20 0 -30 -5 -30 -15 0 -9 9 -15 23 -15 35 0 47 -19 47 -73 0 -66 -13 -87 -54
-87 -39 0 -56 17 -59 57 -2 22 3 29 21 31 18 3 22 -1 22 -22 0 -14 5 -26 10
-26 6 0 10 18 10 40 0 22 -4 40 -10 40 -5 0 -10 -4 -10 -10 0 -5 -9 -10 -20
-10 -18 0 -20 7 -20 68 l0 67 50 0 c45 0 50 -2 50 -22z m150 -138 c0 -8 -7
-15 -15 -15 -8 0 -15 -7 -15 -15 0 -8 5 -15 10 -15 6 0 10 -7 10 -15 0 -8 -4
-15 -10 -15 -16 0 -12 -30 5 -36 27 -11 16 -24 -20 -24 l-35 0 0 75 0 75 35 0
c24 0 35 -5 35 -15z m85 -4 c3 -11 5 -49 3 -85 -2 -58 -4 -66 -22 -66 -39 0
-56 29 -56 95 0 34 3 65 7 68 15 15 62 7 68 -12z m45 -42 c0 -37 4 -58 10 -54
6 3 10 31 10 61 0 41 4 54 15 54 12 0 15 -14 15 -62 0 -76 -8 -91 -46 -86 -29
3 -29 4 -32 76 -2 59 0 72 13 72 12 0 15 -13 15 -61z m132 -11 l13 -73 3 73
c2 55 6 72 17 72 12 0 15 -14 15 -60 0 -50 3 -61 21 -70 20 -11 20 -9 18 57
l-3 68 68 3 c56 2 71 0 82 -15 13 -17 13 -17 14 0 0 9 7 17 16 17 12 0 15 -6
10 -22 -4 -13 -9 -47 -13 -75 -4 -41 -10 -53 -23 -53 -13 0 -18 12 -23 55 -3
30 -8 59 -12 65 -14 23 -25 -4 -25 -61 0 -52 -2 -59 -20 -59 -18 0 -20 7 -20
59 0 33 -4 63 -10 66 -6 4 -10 -18 -10 -59 l0 -66 -69 0 c-46 0 -71 4 -74 13
-4 10 -7 10 -18 0 -19 -19 -41 -16 -35 5 2 9 10 43 16 75 9 45 15 57 30 57 15
0 21 -14 32 -72z m198 -193 c0 -74 0 -75 -26 -75 -18 0 -28 6 -31 21 l-6 20
-22 -21 c-21 -20 -22 -24 -9 -48 8 -15 14 -49 14 -75 0 -84 -37 -140 -113
-172 -30 -12 -38 -21 -35 -38 2 -16 10 -22 28 -22 21 0 25 -5 25 -30 0 -25 -4
-31 -27 -33 -22 -3 -28 -9 -28 -28 0 -20 -5 -24 -30 -24 -25 0 -30 4 -30 24 0
19 -6 25 -27 28 -24 3 -28 8 -28 33 0 27 3 30 28 27 23 -2 27 1 27 22 0 19 -8
27 -34 36 -147 48 -170 247 -38 331 54 34 121 39 176 12 34 -16 37 -16 56 2
l21 19 -20 8 c-14 5 -21 16 -21 33 0 25 1 25 75 25 l75 0 0 -75z"/>
<path d="M8071 4204 c0 -11 3 -14 6 -6 3 7 2 16 -1 19 -3 4 -6 -2 -5 -13z"/>
<path d="M8323 4240 c0 -30 2 -43 4 -27 2 15 2 39 0 55 -2 15 -4 2 -4 -28z"/>
<path d="M8140 4019 c0 -24 4 -38 10 -34 6 3 10 22 10 41 0 19 -4 34 -10 34
-5 0 -10 -18 -10 -41z"/>
<path d="M8226 3761 c-38 -26 -55 -57 -56 -104 0 -84 56 -133 142 -125 115 12
156 147 67 223 -39 32 -109 34 -153 6z m154 -76 c0 -26 0 -26 -82 -23 -77 3
-83 5 -86 26 -3 21 -1 22 82 22 85 0 86 0 86 -25z m-3 -46 c6 -6 8 -19 6 -30
-5 -17 -15 -19 -84 -19 -62 0 -81 3 -85 15 -14 35 3 45 79 45 40 0 78 -5 84
-11z"/>
<path d="M1200 3755 c-140 -29 -442 -90 -670 -136 -228 -45 -416 -83 -417 -84
-1 0 13 -59 31 -131 94 -356 201 -646 343 -919 126 -245 184 -340 205 -339 14
1 240 142 523 326 55 36 195 125 310 198 263 166 335 212 335 215 0 1 -23 42
-50 90 -128 221 -281 599 -306 754 -9 51 -22 81 -36 80 -7 0 -128 -25 -268
-54z m-628 -275 c-2 -24 -2 -24 9 -5 17 28 29 35 67 35 25 0 35 -5 41 -22 13
-37 1 -91 -31 -130 l-30 -38 31 0 c26 0 31 -4 31 -25 0 -25 -1 -25 -85 -24
l-85 1 0 74 c0 59 -3 74 -15 74 -23 0 -18 40 7 67 29 31 64 27 60 -7z m659 7
l0 -22 9 23 c10 25 50 31 50 7 0 -8 -6 -15 -12 -15 -9 0 -8 -4 2 -10 12 -8 13
-11 1 -19 -9 -6 -10 -11 -2 -15 6 -4 11 -13 11 -21 0 -11 -27 -13 -152 -10
-184 4 -168 2 -168 20 0 8 -7 15 -15 15 -8 0 -15 -8 -15 -18 0 -15 -11 -18
-85 -19 l-85 -1 0 54 0 53 230 0 230 0 1 -22z m-416 -117 c4 -7 12 -7 18 -2 7
4 124 8 261 8 l249 -1 -1 -37 c0 -21 -1 -44 -1 -51 -1 -10 -23 -14 -86 -15
-85 0 -85 0 -85 25 0 21 -2 24 -15 13 -8 -7 -15 -19 -15 -26 0 -11 -35 -13
-185 -12 l-185 1 0 48 c0 43 7 55 32 58 4 1 10 -4 13 -9z m-4 -142 c0 -10 2
-10 6 0 8 20 103 16 120 -5 10 -14 13 -14 11 -3 -3 13 31 15 252 15 l255 0 3
-39 c5 -52 -4 -72 -23 -56 -8 7 -15 8 -15 3 0 -6 -22 -10 -50 -10 -47 1 -50 3
-51 26 -1 26 -1 26 -7 3 -11 -37 -27 -30 -32 14 -4 35 -7 40 -18 28 -8 -9 -9
-14 -2 -14 6 0 10 -12 8 -27 -3 -25 -7 -27 -46 -28 -24 -1 -46 3 -48 7 -3 5
-11 5 -17 0 -7 -5 -43 -9 -82 -8 -57 1 -70 5 -73 19 -4 21 -22 23 -22 3 0 -20
-21 -31 -30 -16 -5 8 -13 9 -26 2 -21 -11 -103 -11 -121 1 -6 4 -13 2 -15 -5
-2 -6 -9 -9 -15 -5 -15 10 6 107 23 107 8 0 14 -6 15 -12z m55 -207 c46 -21
89 -69 129 -145 43 -79 73 -114 115 -136 92 -47 170 -1 170 100 0 57 -24 99
-67 117 -51 21 -96 9 -148 -38 l-43 -40 -16 23 c-24 33 -20 53 17 84 69 58
157 71 235 33 65 -32 95 -84 96 -167 1 -82 -21 -138 -68 -170 -47 -32 -81 -39
-144 -31 -64 9 -121 44 -161 100 -16 22 -31 36 -34 32 -3 -4 -8 -32 -12 -60
-7 -57 -13 -66 -34 -53 -8 4 -28 2 -47 -6 -18 -8 -56 -14 -84 -14 -112 0 -181
74 -181 194 0 94 30 146 106 181 42 20 123 18 171 -4z"/>
<path d="M631 3446 c-1 -26 -4 -28 -29 -23 -26 5 -27 4 -28 -39 -2 -51 4 -54
28 -16 10 15 24 36 32 47 9 13 11 27 6 40 -7 17 -9 16 -9 -9z"/>
<path d="M1231 3444 c0 -11 3 -14 6 -6 3 7 2 16 -1 19 -3 4 -6 -2 -5 -13z"/>
<path d="M850 3439 c0 -5 5 -7 10 -4 6 3 10 8 10 11 0 2 -4 4 -10 4 -5 0 -10
-5 -10 -11z"/>
<path d="M941 3184 c0 -11 3 -14 6 -6 3 7 2 16 -1 19 -3 4 -6 -2 -5 -13z"/>
<path d="M725 2958 c-83 -48 -84 -183 0 -222 52 -25 96 -18 88 14 -5 19 23 32
99 46 l37 6 -19 38 c-53 104 -141 155 -205 118z"/>
<path d="M2301 1410 c-226 -309 -411 -564 -411 -568 1 -10 191 -136 320 -212
156 -92 366 -198 541 -272 172 -73 485 -181 504 -174 7 2 22 44 34 93 12 48
42 160 66 248 24 88 71 264 105 390 34 127 83 311 111 411 27 99 49 188 49
197 0 11 -15 20 -42 28 -74 19 -308 114 -428 172 -115 56 -298 162 -377 218
-23 16 -46 29 -51 29 -5 0 -195 -252 -421 -560z m249 -115 c0 -108 -1 -115
-20 -115 -18 0 -20 7 -20 80 0 66 -2 78 -15 74 -20 -8 -20 20 1 51 9 14 25 25
35 25 18 0 19 -9 19 -115z m124 99 c22 -21 23 -186 2 -203 -25 -21 -79 -9 -94
19 -17 32 -12 161 7 184 17 20 65 21 85 0z m176 6 c0 -5 -6 -11 -12 -13 -10
-4 -9 -8 2 -16 13 -10 13 -12 0 -22 -11 -8 -12 -12 -2 -16 26 -10 10 -21 -33
-20 l-45 1 0 47 0 47 45 0 c25 0 45 -3 45 -8z m58 -2 c9 -9 12 -9 12 0 0 7 5
12 10 12 6 0 11 -17 12 -37 l1 -38 4 36 4 36 87 -1 87 -1 0 -45 0 -45 -95 -1
c-52 -1 -100 3 -107 8 -7 5 -14 5 -18 -2 -3 -5 -15 -10 -26 -10 -16 0 -19 7
-19 50 0 41 3 50 18 50 10 0 23 -5 30 -12z m-100 -132 c6 -4 12 -3 12 2 0 5
30 9 68 8 l67 -1 6 -35 6 -35 2 33 c1 39 21 43 22 5 l1 -28 7 30 c3 17 10 30
15 30 4 0 14 -13 21 -30 l13 -30 1 33 c1 44 21 31 21 -13 0 -19 5 -37 10 -40
6 -4 10 12 10 40 l0 45 90 -3 c93 -4 112 -9 92 -29 -8 -8 -9 -15 -1 -25 23
-27 2 -43 -56 -43 l-55 0 -2 43 -1 42 -4 -42 c-2 -24 -8 -43 -14 -43 -10 0
-10 0 -13 43 -4 45 -16 44 -16 -1 l0 -42 -90 3 c-50 1 -91 -2 -93 -7 -2 -6
-12 -6 -23 -2 -10 5 -47 8 -81 8 l-63 -1 0 48 c0 49 13 59 48 37z m299 -241
c46 -27 53 -44 27 -66 -13 -10 -24 -8 -70 14 -120 59 -246 19 -306 -97 -31
-60 -23 -161 18 -218 49 -70 103 -102 182 -106 59 -3 74 0 122 25 100 53 150
168 117 269 -18 54 -15 73 5 28 20 -47 16 -172 -6 -218 -24 -47 -74 -99 -118
-122 -42 -22 -142 -29 -195 -15 -57 15 -121 66 -157 124 -38 62 -48 173 -21
244 60 157 255 224 402 138z m-27 -195 l0 -30 -115 0 -115 0 0 30 0 30 115 0
115 0 0 -30z m0 -100 l0 -30 -115 0 -115 0 0 30 0 30 115 0 115 0 0 -30z"/>
<path d="M2622 1293 c4 -98 23 -100 23 -1 0 49 -4 73 -13 76 -10 3 -12 -14
-10 -75z"/>
<path d="M2882 1360 c0 -19 2 -27 5 -17 2 9 2 25 0 35 -3 9 -5 1 -5 -18z"/>
<path d="M3053 1360 c0 -16 4 -30 9 -30 4 0 8 14 8 30 0 17 -4 30 -8 30 -5 0
-9 -13 -9 -30z"/>
<path d="M2990 1365 c0 -8 9 -15 20 -15 24 0 27 15 4 24 -22 9 -24 8 -24 -9z"/>
<path d="M3102 1360 c0 -14 2 -19 5 -12 2 6 2 18 0 25 -3 6 -5 1 -5 -13z"/>
<path d="M2860 1251 c0 -6 5 -13 10 -16 6 -3 10 1 10 9 0 9 -4 16 -10 16 -5 0
-10 -4 -10 -9z"/>
<path d="M3215 1228 c4 -44 5 -46 14 -23 9 22 3 55 -9 55 -4 0 -6 -15 -5 -32z"/>
<path d="M2902 1230 c0 -14 2 -19 5 -12 2 6 2 18 0 25 -3 6 -5 1 -5 -13z"/>
<path d="M2860 1210 c0 -5 5 -10 10 -10 6 0 10 5 10 10 0 6 -4 10 -10 10 -5 0
-10 -4 -10 -10z"/>
<path d="M5718 1664 c-123 -55 -264 -104 -428 -149 -133 -36 -332 -75 -381
-75 -15 0 -30 -4 -33 -8 -2 -4 0 -43 5 -87 5 -44 20 -190 34 -325 14 -135 32
-301 40 -370 8 -69 26 -233 40 -365 15 -132 29 -243 33 -246 8 -7 209 21 361
51 157 31 425 105 598 165 184 64 483 193 490 211 4 12 -80 182 -280 564 -135
260 -168 323 -257 498 -64 123 -99 182 -109 181 -9 -1 -60 -21 -113 -45z
m-571 -416 c7 -6 11 -44 12 -103 0 -83 -2 -96 -19 -105 -27 -15 -56 -12 -74 6
-17 17 -21 80 -7 103 6 9 5 21 -1 31 -16 24 -1 69 25 79 22 9 43 5 64 -11z
m143 -34 c0 -41 -2 -45 -22 -42 -39 5 -36 88 2 88 17 0 20 -7 20 -46z m44 38
c-7 -4 -12 -20 -12 -37 0 -16 5 -33 12 -37 6 -5 2 -8 -11 -8 -21 0 -23 5 -23
45 0 40 2 45 23 45 13 0 17 -3 11 -8z m56 -7 c0 -9 -6 -12 -15 -9 -11 5 -15
-1 -15 -20 0 -27 15 -35 23 -13 3 6 6 2 6 -10 1 -17 -5 -23 -19 -23 -17 0 -20
7 -20 45 0 38 3 45 20 45 11 0 20 -7 20 -15z m44 7 c-7 -4 -12 -20 -12 -37 0
-16 5 -33 12 -37 6 -5 2 -8 -11 -8 -21 0 -23 5 -23 45 0 40 2 45 23 45 13 0
17 -3 11 -8z m37 -4 c0 -10 2 -10 6 0 2 6 17 12 31 12 26 0 27 -2 24 -45 -5
-56 -22 -60 -22 -4 0 24 -4 38 -10 34 -5 -3 -10 -22 -10 -41 0 -19 -4 -34 -10
-34 -5 0 -10 6 -10 13 0 8 -4 7 -10 -3 -7 -11 -10 -2 -10 33 0 26 5 47 10 47
6 0 10 -6 11 -12z m109 0 c0 -9 3 -10 8 -2 4 6 15 11 26 11 15 0 17 -6 13 -39
-6 -43 -17 -61 -25 -39 -4 11 -6 11 -13 0 -11 -18 -15 -11 -23 39 -4 26 -2 42
4 42 5 0 10 -6 10 -12z m206 -11 c-2 -11 -1 -29 4 -42 8 -22 7 -22 -71 -22
l-79 -1 0 44 0 43 76 -2 c69 -1 75 -3 70 -20z m75 -8 c7 -24 7 -24 8 4 1 29
10 34 29 15 9 -9 12 -9 12 1 0 8 11 11 33 9 30 -3 32 -5 32 -43 0 -39 -1 -40
-37 -43 -31 -3 -38 0 -39 15 -1 17 -2 17 -6 1 -3 -13 -13 -17 -39 -15 -36 2
-38 6 -28 56 8 36 25 36 35 0z m-581 -109 c0 -5 -3 -10 -7 -10 -5 0 -8 -14 -9
-30 -1 -17 3 -30 7 -30 5 0 9 -4 9 -10 0 -11 -30 -14 -31 -2 0 4 -2 21 -5 37
-2 17 -2 36 1 43 5 14 35 16 35 2z m141 -11 c7 -12 9 -12 9 2 0 20 91 21 98 0
3 -10 6 -11 12 -1 4 7 29 14 54 16 39 2 46 0 46 -17 0 -12 -5 -16 -15 -13 -11
4 -15 0 -15 -16 0 -16 4 -20 16 -16 11 4 14 1 12 -12 -2 -13 -13 -17 -46 -17
-23 0 -42 5 -42 10 0 6 -5 3 -10 -5 -9 -13 -10 -13 -10 0 0 9 -3 11 -8 5 -11
-16 -85 -13 -99 5 -11 13 -13 12 -13 -5 -1 -12 -4 -15 -7 -7 -4 10 -8 10 -18
2 -10 -8 -19 -8 -34 -1 -14 8 -20 8 -23 -1 -2 -6 -12 -9 -21 -5 -12 4 -17 18
-17 45 0 21 3 41 6 44 12 13 115 2 125 -13z m284 11 c5 -7 11 -8 19 -1 12 10
97 8 115 -3 6 -4 11 -1 11 6 1 8 6 6 15 -6 11 -15 15 -16 15 -5 0 11 12 16 40
17 36 3 40 0 41 -20 0 -23 0 -23 12 2 l11 25 4 -27 c2 -16 2 -40 0 -55 l-4
-28 -11 25 -12 25 0 -24 c-1 -36 -19 -14 -24 29 -4 33 -4 33 -5 -7 -2 -54 -22
-57 -22 -3 0 22 -4 40 -10 40 -5 0 -10 -15 -10 -34 0 -39 -16 -57 -27 -30 -6
16 -7 16 -14 -2 -7 -18 -8 -17 -15 5 -7 24 -7 24 -15 4 -7 -19 -15 -21 -76
-19 l-68 2 -3 33 c-5 51 15 81 33 51z m65 -192 c0 -7 -5 -30 -11 -52 -8 -29
-13 -36 -22 -27 -8 8 -40 -17 -124 -101 l-113 -112 -48 47 -48 47 -69 -70
c-70 -71 -89 -81 -98 -56 -5 13 150 176 168 176 5 0 29 -19 52 -42 l43 -42 95
94 c68 67 93 99 89 112 -4 13 3 20 28 27 46 13 58 13 58 -1z m-40 -343 l0
-215 -65 0 -65 0 0 163 -1 162 58 52 c32 29 61 53 66 53 4 0 7 -97 7 -215z
m-330 -70 l0 -145 -65 0 -65 0 0 89 0 89 58 56 c31 31 60 56 65 56 4 0 7 -65
7 -145z m122 100 c15 14 32 25 38 25 6 0 10 -48 10 -135 l0 -136 -67 3 -68 3
-3 119 c-3 148 -1 158 36 123 l28 -27 26 25z"/>
<path d="M5097 1223 c-13 -12 -7 -43 8 -43 9 0 15 9 15 25 0 24 -10 32 -23 18z"/>
<path d="M5096 1143 c-3 -3 -6 -21 -6 -40 0 -23 5 -33 15 -33 10 0 15 10 15
34 0 34 -11 52 -24 39z"/>
<path d="M5262 1215 c0 -16 2 -22 5 -12 2 9 2 23 0 30 -3 6 -5 -1 -5 -18z"/>
<path d="M5655 1220 c2 -31 15 -37 15 -7 0 15 -4 27 -8 27 -5 0 -8 -9 -7 -20z"/>
<path d="M5736 1211 c-4 -7 -5 -15 -2 -18 9 -9 19 4 14 18 -4 11 -6 11 -12 0z"/>
<path d="M5952 1215 c0 -16 2 -22 5 -12 2 9 2 23 0 30 -3 6 -5 -1 -5 -18z"/>
<path d="M5310 1080 c0 -29 1 -30 16 -16 14 15 14 17 0 32 -15 14 -16 13 -16
-16z"/>
<path d="M5362 1085 c0 -16 2 -22 5 -12 2 9 2 23 0 30 -3 6 -5 -1 -5 -18z"/>
<path d="M5472 1085 c0 -16 2 -22 5 -12 2 9 2 23 0 30 -3 6 -5 -1 -5 -18z"/>
<path d="M5690 1101 c0 -5 7 -11 15 -15 8 -3 15 -1 15 3 0 5 -7 11 -15 15 -8
3 -15 1 -15 -3z"/>
<path d="M5792 1080 c0 -19 2 -27 5 -17 2 9 2 25 0 35 -3 9 -5 1 -5 -18z"/>
<path d="M5761 1064 c0 -11 3 -14 6 -6 3 7 2 16 -1 19 -3 4 -6 -2 -5 -13z"/>
<path d="M3722 1423 c-12 -43 -33 -123 -47 -178 -14 -55 -45 -172 -69 -260
-46 -168 -142 -524 -178 -660 -11 -44 -27 -100 -35 -124 -7 -24 -12 -46 -9
-48 19 -20 426 -95 671 -125 108 -13 827 -20 839 -8 5 6 -8 145 -89 883 -30
274 -55 500 -55 502 0 2 -109 4 -242 5 -189 0 -277 5 -393 21 -132 18 -290 47
-351 65 -19 5 -23 -2 -42 -73z m115 -333 c15 -30 17 -138 3 -175 -19 -51 -97
-52 -115 -1 -7 22 -6 30 6 40 14 9 14 13 3 24 -20 19 -18 101 3 124 25 28 84
21 100 -12z m405 -12 c-2 -23 1 -38 7 -38 6 0 11 -6 11 -12 0 -10 -27 -13
-108 -11 -59 1 -142 2 -184 2 l-78 1 0 43 c0 24 2 46 5 49 3 2 83 4 177 4
l173 -1 -3 -37z m456 -11 l3 -47 -38 -2 c-21 0 -45 -1 -53 0 -8 1 -48 2 -87 3
-41 0 -73 5 -73 10 0 6 -7 3 -16 -5 -8 -9 -20 -13 -26 -10 -6 4 -39 6 -74 5
l-64 -1 0 48 0 49 213 -1 212 -1 3 -48z m-653 -137 l0 -45 -78 -1 -78 -1 7 41
c3 23 8 44 10 47 2 3 34 5 71 5 l68 -1 0 -45z m655 41 c0 -5 -6 -12 -12 -15
-10 -5 -10 -7 0 -12 9 -4 10 -9 2 -19 -8 -9 -8 -15 0 -20 30 -19 -14 -23 -255
-23 -264 0 -265 0 -266 21 -2 21 -2 21 -6 0 -4 -20 -11 -23 -54 -23 l-49 0 0
49 0 49 320 1 c190 1 320 -3 320 -8z m-424 -217 c35 -20 67 -41 71 -47 4 -7 9
-46 11 -87 1 -41 6 -76 11 -78 4 -1 33 -18 64 -38 l57 -36 0 -88 0 -89 -69
-41 c-38 -22 -75 -40 -81 -40 -6 0 -40 15 -75 34 l-63 35 -64 -34 c-34 -19
-69 -35 -76 -35 -8 0 -45 18 -83 40 l-69 41 0 89 0 88 70 43 70 44 0 77 0 77
68 40 c37 23 73 41 80 41 8 0 43 -16 78 -36z"/>
<path d="M3770 1040 c0 -21 4 -30 13 -27 6 2 12 14 12 27 0 13 -6 25 -12 28
-9 2 -13 -7 -13 -28z"/>
<path d="M3779 963 c-11 -3 -15 -11 -12 -24 7 -25 20 -24 28 2 8 24 6 27 -16
22z"/>
<path d="M4321 934 c0 -11 3 -14 6 -6 3 7 2 16 -1 19 -3 4 -6 -2 -5 -13z"/>
<path d="M4080 620 l0 -51 40 22 c22 13 40 25 40 28 0 3 -18 16 -40 29 l-40
23 0 -51z"/>
<path d="M4278 646 c-21 -11 -38 -24 -38 -27 0 -3 18 -15 40 -28 l40 -22 0 50
c0 28 -1 51 -2 50 -2 -1 -20 -11 -40 -23z"/>
<path d="M4138 566 c-21 -11 -38 -23 -38 -26 0 -3 18 -15 40 -28 l40 -23 0 51
c0 27 -1 50 -2 49 -2 -1 -20 -11 -40 -23z"/>
<path d="M4220 539 l0 -50 40 23 c22 13 40 25 40 28 0 3 -18 15 -40 27 l-40
21 0 -49z"/>
<path d="M4288 492 c-27 -15 -48 -29 -48 -32 0 -3 23 -17 50 -33 55 -30 44
-31 126 19 l27 16 -53 29 c-29 16 -54 29 -54 29 -1 0 -22 -13 -48 -28z"/>
<path d="M3940 372 l0 -59 51 -32 c28 -17 52 -31 55 -31 3 0 4 27 2 61 l-3 60
-52 30 -53 31 0 -60z"/>
<path d="M4138 406 c-21 -11 -38 -23 -38 -26 0 -3 18 -15 40 -28 l40 -23 0 51
c0 27 -1 50 -2 49 -2 -1 -20 -11 -40 -23z"/>
<path d="M4408 403 c-46 -27 -46 -28 -50 -86 -2 -32 -1 -60 0 -62 2 -2 26 10
53 27 l49 30 0 59 c0 32 -1 59 -2 59 -2 0 -24 -13 -50 -27z"/>
<path d="M4080 300 l0 -51 40 23 c22 13 40 26 40 29 0 3 -18 15 -40 28 l-40
22 0 -51z"/>
</g>
</svg>
