<?xml version="1.0" standalone="no"?>
<!DOCTYPE svg PUBLIC "-//W3C//DTD SVG 20010904//EN"
 "http://www.w3.org/TR/2001/REC-SVG-20010904/DTD/svg10.dtd">
<svg version="1.0" xmlns="http://www.w3.org/2000/svg"
 width="512.000000pt" height="512.000000pt" viewBox="0 0 512.000000 512.000000"
 preserveAspectRatio="xMidYMid meet">
<metadata>
Created by potrace 1.11, written by Peter Selinger 2001-2013
</metadata>
<g transform="translate(0.000000,512.000000) scale(0.100000,-0.100000)"
fill="#000000" stroke="none">
<path d="M2387 5014 c-1 -1 -33 -4 -72 -8 -38 -3 -83 -8 -100 -11 -133 -22
-174 -31 -274 -56 -62 -16 -128 -36 -147 -44 l-33 -14 15 -38 c8 -21 19 -47
24 -58 5 -11 59 -150 121 -310 120 -313 195 -505 212 -545 6 -14 10 -28 9 -32
-3 -11 -8 -11 110 16 100 24 165 34 219 35 l26 1 -1 533 -1 532 -53 0 c-29 1
-54 0 -55 -1z"/>
<path d="M2650 4484 c0 -502 1 -534 18 -535 9 0 26 -2 37 -4 11 -2 42 -7 69
-10 27 -4 56 -8 65 -10 39 -9 134 -36 141 -40 9 -5 25 28 60 120 12 33 29 74
36 92 8 17 14 34 14 38 0 5 59 160 95 250 5 11 9 23 10 28 2 4 4 9 5 12 1 3 3
8 5 13 1 4 7 21 14 37 7 17 26 64 41 105 15 41 37 96 49 123 11 26 18 47 14
47 -3 0 -1 6 4 13 5 6 18 34 27 60 19 49 14 68 -16 73 -7 1 -53 14 -102 28
-48 14 -98 28 -110 30 -44 9 -182 35 -211 40 -47 9 -124 16 -197 20 l-68 4 0
-534z"/>
<path d="M1600 4822 c-20 -6 -195 -94 -245 -122 -74 -41 -209 -132 -288 -193
-87 -67 -87 -54 -1 -147 28 -30 121 -131 205 -225 85 -93 163 -179 174 -191
11 -11 56 -61 100 -109 44 -49 98 -109 121 -133 l41 -45 36 22 c21 12 37 27
37 32 0 5 5 9 11 9 6 0 23 8 37 19 15 10 60 35 100 56 39 21 72 41 72 46 0 4
-16 49 -35 101 -74 193 -97 254 -106 273 -4 11 -22 56 -39 100 -17 44 -35 89
-40 100 -5 11 -41 106 -81 210 -40 105 -75 193 -78 196 -3 4 -13 4 -21 1z"/>
<path d="M3451 4653 c-35 -93 -69 -181 -76 -198 -7 -16 -26 -66 -43 -110 -43
-112 -72 -188 -136 -353 -31 -79 -56 -150 -56 -156 0 -7 19 -22 42 -32 24 -10
91 -51 150 -91 l107 -71 98 106 c54 59 103 112 108 118 6 6 53 58 105 114 52
57 104 114 115 126 122 135 189 207 237 258 l57 60 -27 24 c-15 13 -63 50
-107 83 -44 33 -85 63 -91 68 -59 47 -382 221 -411 221 -5 0 -37 -75 -72 -167z"/>
<path d="M809 4273 c-97 -99 -162 -176 -219 -258 -19 -27 -41 -56 -47 -63 -7
-7 -13 -17 -13 -22 0 -5 -6 -15 -13 -22 -29 -29 -95 -153 -87 -162 5 -5 220
-114 477 -242 l467 -232 55 81 c31 45 80 107 109 138 28 31 52 60 52 63 0 4
-19 28 -42 53 -24 25 -57 61 -73 79 -17 18 -60 65 -97 106 -36 40 -78 87 -93
103 -91 99 -138 150 -200 219 -38 43 -102 111 -140 153 l-70 75 -66 -69z"/>
<path d="M4231 4283 c-19 -21 -59 -65 -90 -99 -31 -33 -91 -99 -133 -146 -43
-46 -90 -98 -105 -114 -16 -17 -62 -67 -103 -113 -102 -112 -143 -157 -202
-219 -54 -58 -54 -51 -1 -112 12 -14 33 -38 47 -54 13 -16 44 -60 68 -98 24
-37 48 -68 53 -68 18 -1 945 465 945 475 0 30 -193 315 -290 429 -37 42 -147
156 -152 156 -2 0 -19 -17 -37 -37z"/>
<path d="M343 3598 c-15 -19 -97 -239 -126 -338 -41 -139 -68 -272 -71 -349
-1 -27 -7 -25 134 -35 47 -4 99 -8 115 -11 17 -2 66 -6 110 -10 44 -3 96 -8
115 -10 19 -3 67 -7 105 -10 67 -6 106 -9 220 -20 28 -3 81 -7 118 -10 37 -3
83 -8 102 -11 26 -4 34 -1 38 13 3 10 15 57 27 105 11 48 32 115 45 149 14 35
25 66 25 70 0 6 -841 432 -941 477 -3 1 -11 -3 -16 -10z"/>
<path d="M4307 3355 c-258 -128 -470 -235 -472 -237 -2 -2 11 -48 30 -102 18
-54 39 -129 46 -167 l12 -70 71 6 c39 3 91 8 116 10 81 8 154 15 215 20 59 5
127 12 195 20 19 2 73 7 120 11 47 3 92 7 100 9 8 1 53 6 100 10 47 4 98 9
113 10 15 2 30 4 32 6 4 5 -19 146 -40 239 -16 69 -36 139 -70 245 -24 73 -87
225 -94 225 -3 -1 -217 -106 -474 -235z"/>
<path d="M137 2732 c-16 -3 -18 -12 -15 -63 1 -32 1 -59 -2 -59 -3 0 -4 -26
-3 -57 1 -32 2 -58 3 -58 0 0 3 -38 5 -85 3 -47 7 -101 10 -120 3 -19 8 -55
11 -79 3 -24 14 -84 25 -134 10 -50 19 -91 19 -92 0 -2 53 13 118 32 64 19
173 51 242 70 69 20 179 51 245 70 66 20 149 43 185 53 36 10 76 22 90 28 14
5 27 9 30 9 3 0 29 6 58 13 47 13 57 20 53 43 -1 4 -4 27 -7 50 -2 23 -7 55
-10 71 -3 16 -6 71 -6 123 -1 58 -6 93 -12 94 -6 0 -20 2 -30 4 -10 2 -58 6
-105 10 -47 3 -102 7 -121 10 -19 2 -66 7 -105 10 -38 3 -94 7 -122 10 -85 8
-154 14 -218 20 -33 3 -82 7 -110 10 -27 2 -84 7 -125 10 -41 4 -77 8 -80 9
-3 1 -13 1 -23 -2z"/>
<path d="M4947 2724 c-2 -2 -29 -6 -60 -9 -32 -3 -83 -7 -114 -10 -32 -3 -80
-8 -108 -10 -27 -3 -75 -7 -105 -10 -30 -3 -84 -7 -120 -10 -36 -3 -81 -8
-100 -10 -52 -6 -152 -16 -330 -31 -35 -3 -65 -6 -66 -7 -1 -1 -4 -51 -8 -112
-3 -60 -8 -119 -10 -130 -11 -58 -17 -105 -14 -105 2 0 66 -18 143 -41 77 -22
154 -44 170 -49 17 -4 111 -31 210 -60 99 -28 187 -53 195 -55 8 -2 77 -22
152 -44 76 -23 140 -41 143 -41 16 0 56 205 71 365 8 79 12 332 7 355 -4 13
-46 24 -56 14z"/>
<path d="M945 2043 c-159 -47 -328 -96 -375 -109 -47 -14 -94 -26 -106 -28
-11 -2 -26 -6 -32 -10 -7 -4 -38 -14 -69 -22 -32 -8 -75 -19 -95 -25 l-37 -10
33 -92 c65 -180 146 -341 252 -505 l54 -83 31 23 c17 13 44 32 59 43 16 11
108 81 205 155 97 74 184 141 193 148 10 7 44 33 77 58 33 25 67 50 75 57 9 7
42 32 75 57 33 24 66 50 75 56 8 7 26 21 39 32 l24 19 -20 29 c-29 42 -84 149
-117 227 -15 37 -33 66 -40 66 -6 -1 -141 -40 -301 -86z"/>
<path d="M3844 2078 c-20 -60 -102 -221 -115 -226 -16 -6 -10 -31 10 -42 11
-5 25 -16 33 -23 7 -7 132 -102 278 -212 146 -109 279 -209 295 -222 39 -30
36 -28 134 -101 46 -34 87 -62 91 -62 4 0 13 11 20 25 7 14 17 25 22 25 4 0 8
4 8 9 0 5 18 38 40 74 103 170 245 497 224 516 -8 7 -96 35 -145 46 -9 2 -49
13 -90 26 -41 12 -78 23 -84 25 -26 5 -503 144 -527 153 -16 6 -28 9 -28 7 0
-2 -27 5 -61 15 -33 10 -67 19 -74 19 -7 0 -21 -24 -31 -52z"/>
<path d="M3570 1642 c-58 -62 -141 -138 -180 -165 l-23 -16 38 -63 c21 -35 77
-126 125 -203 48 -77 142 -230 210 -340 68 -110 138 -224 157 -253 l34 -52 47
35 c175 128 317 258 432 395 30 36 59 68 65 72 5 4 7 9 5 11 -3 2 -180 136
-395 297 -214 161 -403 303 -418 316 -16 13 -32 24 -35 24 -4 0 -32 -26 -62
-58z"/>
<path d="M1378 1582 c-69 -53 -188 -144 -265 -202 -76 -58 -140 -107 -143
-110 -3 -3 -32 -25 -65 -49 -33 -25 -61 -48 -63 -53 -2 -4 -10 -8 -17 -8 -7 0
-15 -3 -17 -7 -2 -5 -33 -30 -70 -58 -37 -27 -67 -54 -67 -60 0 -9 32 -47 134
-155 61 -65 142 -139 226 -206 41 -32 76 -62 77 -66 2 -5 10 -8 17 -8 7 0 15
-4 17 -8 4 -10 78 -56 82 -51 15 18 76 121 76 128 0 5 4 11 8 13 4 2 19 21 32
43 22 37 149 242 321 520 41 65 76 124 78 130 2 5 13 23 24 38 10 16 18 29 16
31 -31 20 -176 147 -214 185 -27 28 -52 51 -55 50 -3 0 -62 -44 -132 -97z"/>
<path d="M3150 1334 c-36 -18 -101 -45 -145 -60 -44 -14 -83 -29 -87 -33 -3
-3 0 -37 8 -76 7 -38 16 -86 19 -105 4 -19 8 -45 10 -57 2 -13 6 -26 8 -30 3
-5 7 -31 11 -60 3 -28 8 -57 10 -65 3 -7 7 -29 10 -48 3 -19 8 -48 12 -65 3
-16 7 -39 9 -50 2 -11 6 -31 9 -45 3 -14 7 -36 10 -50 3 -14 10 -50 16 -80 6
-30 13 -71 16 -90 3 -19 7 -43 10 -52 6 -20 10 -40 19 -98 12 -83 5 -79 98
-55 101 27 246 77 321 110 31 14 57 24 59 24 2 -2 173 88 204 107 l22 14 -35
57 c-41 68 -89 146 -288 468 -82 132 -154 249 -160 260 -45 78 -73 115 -86
113 -8 0 -44 -16 -80 -34z"/>
<path d="M1900 1351 c0 -5 -31 -59 -70 -120 -38 -62 -70 -116 -70 -120 0 -5
-4 -11 -8 -13 -10 -4 -72 -105 -72 -117 0 -5 -4 -11 -8 -13 -4 -1 -25 -32 -47
-68 -21 -36 -53 -87 -70 -115 -33 -51 -143 -229 -184 -297 l-22 -37 143 -70
c151 -74 286 -124 455 -170 l103 -28 9 36 c5 20 12 50 15 66 3 17 7 41 10 55
3 14 7 42 10 62 2 21 7 41 9 45 3 4 8 28 11 53 8 56 15 101 21 120 3 8 7 33
10 55 4 22 8 48 11 57 3 10 7 30 10 45 2 16 7 39 10 53 3 14 7 36 9 50 3 22
41 223 51 275 18 82 18 82 -39 95 -55 13 -245 87 -261 101 -13 12 -36 11 -36
0z"/>
<path d="M2720 1209 c-19 -4 -99 -7 -178 -6 -78 1 -142 0 -143 -3 -2 -15 -12
-68 -34 -180 -13 -69 -27 -141 -30 -160 -3 -19 -8 -42 -10 -50 -2 -8 -7 -33
-10 -55 -14 -80 -13 -77 -40 -215 -8 -40 -26 -137 -31 -167 -2 -16 -6 -37 -9
-49 -3 -12 -7 -39 -10 -60 -4 -21 -10 -54 -15 -72 -10 -37 -9 -37 95 -48 78
-8 424 -8 495 -1 104 11 145 18 151 25 6 7 -5 81 -36 232 -3 14 -10 52 -15 85
-10 52 -20 103 -45 230 -3 17 -7 39 -9 50 -6 33 -49 268 -61 325 -2 14 -7 39
-10 57 -10 63 -17 70 -55 62z"/>
</g>
</svg>
